<svg width="716.975px" height="131.6px" xmlns="http://www.w3.org/2000/svg" viewBox="-108.48750000000001 9.200000000000003 716.975 131.6" style="background: none;" preserveAspectRatio="xMidYMid"><defs><linearGradient id="editing-gradow-gradient" x1="0.4825502516487495" x2="0.5174497483512506" y1="0.00030458649045211894" y2="0.9996954135095479" gradientUnits="objectBoundingBox"><stop offset="0" stop-color="#ffffff"></stop><stop offset="1" stop-color="#e4e4e4"></stop></linearGradient><filter id="editing-gradow-filter" x="-100%" y="-100%" width="300%" height="300%"><feFlood flood-color="#b1b1b1" result="flood"></feFlood><feComposite operator="in" in2="SourceAlpha" in="flood" result="shadow"></feComposite><feOffset dx="3.3" dy="-1.6" in="SourceGraphic" result="offset-1"></feOffset><feOffset dx="-3.3" dy="1.6" in="shadow" result="offset-2"></feOffset><feMerge><feMergeNode in="offset-2"></feMergeNode><feMergeNode in="offset-1"></feMergeNode></feMerge></filter></defs><g filter="url(#editing-gradow-filter)"><g transform="translate(-6.300014019012451, 98.03333473205566)"><path d="M49.50-44.81L49.50-3.47L49.50-3.47Q49.50-2.59 49.17-1.84L49.17-1.84L49.17-1.84Q48.84-1.09 48.30-0.55L48.30-0.55L48.30-0.55Q47.75 0 47 0.31L47 0.31L47 0.31Q46.25 0.63 45.41 0.63L45.41 0.63L45.41 0.63Q44.66 0.63 43.89 0.34L43.89 0.34L43.89 0.34Q43.13 0.06 42.53-0.56L42.53-0.56L12.84-31.56L12.84 0L4.72 0L4.72-41.34L4.72-41.34Q4.72-42.59 5.42-43.61L5.42-43.61L5.42-43.61Q6.13-44.63 7.22-45.13L7.22-45.13L7.22-45.13Q8.38-45.59 9.59-45.36L9.59-45.36L9.59-45.36Q10.81-45.13 11.69-44.22L11.69-44.22L41.38-13.25L41.38-44.81L49.50-44.81ZM95.78-26.50L95.78-18.31L70.13-18.31L70.13-26.50L95.78-26.50ZM99.44-8.13L99.44 0L70.13 0L70.13 0Q68.44 0 66.44-0.59L66.44-0.59L66.44-0.59Q64.44-1.19 62.73-2.55L62.73-2.55L62.73-2.55Q61.03-3.91 59.89-6.08L59.89-6.08L59.89-6.08Q58.75-8.25 58.75-11.41L58.75-11.41L58.75-40.72L58.75-40.72Q58.75-41.56 59.06-42.31L59.06-42.31L59.06-42.31Q59.38-43.06 59.92-43.63L59.92-43.63L59.92-43.63Q60.47-44.19 61.22-44.50L61.22-44.50L61.22-44.50Q61.97-44.81 62.84-44.81L62.84-44.81L99.44-44.81L99.44-36.69L66.88-36.69L66.88-11.41L66.88-11.41Q66.88-9.81 67.72-8.97L67.72-8.97L67.72-8.97Q68.56-8.13 70.19-8.13L70.19-8.13L99.44-8.13ZM114.06-44.81L127.75-28.81L141.44-44.81L152.53-44.81L133.25-22.34L152.41 0L141.38 0L127.75-15.88L114.19 0L103.13 0L122.25-22.34L103.06-44.81L114.06-44.81ZM198.16-44.81L198.16-36.69L180.25-36.69L180.25 0L172.13 0L172.13-36.69L154.19-36.69L154.19-44.81L198.16-44.81ZM246.53-40.72L246.53 0L238.41 0L238.41-11L209.84-11L209.84 0L201.72 0L201.72-22.41L201.72-22.41Q201.72-27.31 203.41-31.44L203.41-31.44L203.41-31.44Q205.09-35.56 208.09-38.53L208.09-38.53L208.09-38.53Q211.09-41.50 215.19-43.16L215.19-43.16L215.19-43.16Q219.28-44.81 224.13-44.81L224.13-44.81L242.44-44.81L242.44-44.81Q243.28-44.81 244.03-44.50L244.03-44.50L244.03-44.50Q244.78-44.19 245.34-43.63L245.34-43.63L245.34-43.63Q245.91-43.06 246.22-42.31L246.22-42.31L246.22-42.31Q246.53-41.56 246.53-40.72L246.53-40.72ZM209.84-22.41L209.84-19.13L238.41-19.13L238.41-36.69L224.13-36.69L224.13-36.69Q223.75-36.69 222.55-36.58L222.55-36.58L222.55-36.58Q221.34-36.47 219.77-36.03L219.77-36.03L219.77-36.03Q218.19-35.59 216.44-34.69L216.44-34.69L216.44-34.69Q214.69-33.78 213.22-32.19L213.22-32.19L213.22-32.19Q211.75-30.59 210.80-28.20L210.80-28.20L210.80-28.20Q209.84-25.81 209.84-22.41L209.84-22.41ZM300.19-22.41L300.19-4.09L300.19-4.09Q300.19-3.22 299.88-2.47L299.88-2.47L299.88-2.47Q299.56-1.72 299.02-1.17L299.02-1.17L299.02-1.17Q298.47-0.63 297.72-0.31L297.72-0.31L297.72-0.31Q296.97 0 296.09 0L296.09 0L266.78 0L266.78 0Q265.66 0 264.36-0.27L264.36-0.27L264.36-0.27Q263.06-0.53 261.80-1.09L261.80-1.09L261.80-1.09Q260.53-1.66 259.38-2.55L259.38-2.55L259.38-2.55Q258.22-3.44 257.33-4.70L257.33-4.70L257.33-4.70Q256.44-5.97 255.91-7.64L255.91-7.64L255.91-7.64Q255.38-9.31 255.38-11.41L255.38-11.41L255.38-33.41L255.38-33.41Q255.38-34.53 255.64-35.83L255.64-35.83L255.64-35.83Q255.91-37.13 256.47-38.39L256.47-38.39L256.47-38.39Q257.03-39.66 257.94-40.81L257.94-40.81L257.94-40.81Q258.84-41.97 260.11-42.86L260.11-42.86L260.11-42.86Q261.38-43.75 263.03-44.28L263.03-44.28L263.03-44.28Q264.69-44.81 266.78-44.81L266.78-44.81L299.81-44.81L299.81-36.69L266.78-36.69L266.78-36.69Q265.19-36.69 264.34-35.84L264.34-35.84L264.34-35.84Q263.50-35 263.50-33.34L263.50-33.34L263.50-11.41L263.50-11.41Q263.50-9.84 264.36-8.98L264.36-8.98L264.36-8.98Q265.22-8.13 266.78-8.13L266.78-8.13L292.06-8.13L292.06-18.31L270.44-18.31L270.44-26.50L296.09-26.50L296.09-26.50Q296.97-26.50 297.72-26.17L297.72-26.17L297.72-26.17Q298.47-25.84 299.02-25.28L299.02-25.28L299.02-25.28Q299.56-24.72 299.88-23.98L299.88-23.98L299.88-23.98Q300.19-23.25 300.19-22.41L300.19-22.41ZM345.50-26.50L345.50-18.31L319.84-18.31L319.84-26.50L345.50-26.50ZM349.16-8.13L349.16 0L319.84 0L319.84 0Q318.16 0 316.16-0.59L316.16-0.59L316.16-0.59Q314.16-1.19 312.45-2.55L312.45-2.55L312.45-2.55Q310.75-3.91 309.61-6.08L309.61-6.08L309.61-6.08Q308.47-8.25 308.47-11.41L308.47-11.41L308.47-40.72L308.47-40.72Q308.47-41.56 308.78-42.31L308.78-42.31L308.78-42.31Q309.09-43.06 309.64-43.63L309.64-43.63L309.64-43.63Q310.19-44.19 310.94-44.50L310.94-44.50L310.94-44.50Q311.69-44.81 312.56-44.81L312.56-44.81L349.16-44.81L349.16-36.69L316.59-36.69L316.59-11.41L316.59-11.41Q316.59-9.81 317.44-8.97L317.44-8.97L317.44-8.97Q318.28-8.13 319.91-8.13L319.91-8.13L349.16-8.13ZM401.78-44.81L401.78-3.47L401.78-3.47Q401.78-2.59 401.45-1.84L401.45-1.84L401.45-1.84Q401.13-1.09 400.58-0.55L400.58-0.55L400.58-0.55Q400.03 0 399.28 0.31L399.28 0.31L399.28 0.31Q398.53 0.63 397.69 0.63L397.69 0.63L397.69 0.63Q396.94 0.63 396.17 0.34L396.17 0.34L396.17 0.34Q395.41 0.06 394.81-0.56L394.81-0.56L365.13-31.56L365.13 0L357 0L357-41.34L357-41.34Q357-42.59 357.70-43.61L357.70-43.61L357.70-43.61Q358.41-44.63 359.50-45.13L359.50-45.13L359.50-45.13Q360.66-45.59 361.88-45.36L361.88-45.36L361.88-45.36Q363.09-45.13 363.97-44.22L363.97-44.22L393.66-13.25L393.66-44.81L401.78-44.81ZM455.94-26.06L455.94-18.75L455.94-18.75Q455.94-14.66 454.52-11.22L454.52-11.22L454.52-11.22Q453.09-7.78 450.59-5.30L450.59-5.30L450.59-5.30Q448.09-2.81 444.66-1.41L444.66-1.41L444.66-1.41Q441.22 0 437.19 0L437.19 0L415.25 0L415.25 0Q414.38 0 413.63-0.31L413.63-0.31L413.63-0.31Q412.88-0.63 412.33-1.17L412.33-1.17L412.33-1.17Q411.78-1.72 411.47-2.47L411.47-2.47L411.47-2.47Q411.16-3.22 411.16-4.09L411.16-4.09L411.16-40.72L411.16-40.72Q411.16-41.56 411.47-42.31L411.47-42.31L411.47-42.31Q411.78-43.06 412.33-43.63L412.33-43.63L412.33-43.63Q412.88-44.19 413.63-44.50L413.63-44.50L413.63-44.50Q414.38-44.81 415.25-44.81L415.25-44.81L437.19-44.81L437.19-44.81Q441.22-44.81 444.66-43.41L444.66-43.41L444.66-43.41Q448.09-42 450.59-39.52L450.59-39.52L450.59-39.52Q453.09-37.03 454.52-33.58L454.52-33.58L454.52-33.58Q455.94-30.13 455.94-26.06L455.94-26.06ZM447.81-18.75L447.81-26.06L447.81-26.06Q447.81-28.44 447.05-30.41L447.05-30.41L447.05-30.41Q446.28-32.38 444.88-33.77L444.88-33.77L444.88-33.77Q443.47-35.16 441.52-35.92L441.52-35.92L441.52-35.92Q439.56-36.69 437.19-36.69L437.19-36.69L419.28-36.69L419.28-8.13L437.19-8.13L437.19-8.13Q439.56-8.13 441.52-8.89L441.52-8.89L441.52-8.89Q443.47-9.66 444.88-11.05L444.88-11.05L444.88-11.05Q446.28-12.44 447.05-14.39L447.05-14.39L447.05-14.39Q447.81-16.34 447.81-18.75L447.81-18.75ZM507.88-40.72L507.88 0L499.75 0L499.75-11L471.19-11L471.19 0L463.06 0L463.06-22.41L463.06-22.41Q463.06-27.31 464.75-31.44L464.75-31.44L464.75-31.44Q466.44-35.56 469.44-38.53L469.44-38.53L469.44-38.53Q472.44-41.50 476.53-43.16L476.53-43.16L476.53-43.16Q480.63-44.81 485.47-44.81L485.47-44.81L503.78-44.81L503.78-44.81Q504.63-44.81 505.38-44.50L505.38-44.50L505.38-44.50Q506.13-44.19 506.69-43.63L506.69-43.63L506.69-43.63Q507.25-43.06 507.56-42.31L507.56-42.31L507.56-42.31Q507.88-41.56 507.88-40.72L507.88-40.72ZM471.19-22.41L471.19-19.13L499.75-19.13L499.75-36.69L485.47-36.69L485.47-36.69Q485.09-36.69 483.89-36.58L483.89-36.58L483.89-36.58Q482.69-36.47 481.11-36.03L481.11-36.03L481.11-36.03Q479.53-35.59 477.78-34.69L477.78-34.69L477.78-34.69Q476.03-33.78 474.56-32.19L474.56-32.19L474.56-32.19Q473.09-30.59 472.14-28.20L472.14-28.20L472.14-28.20Q471.19-25.81 471.19-22.41L471.19-22.41Z" fill="url(#editing-gradow-gradient)"></path></g></g><style>text {
  font-size: 64px;
  font-family: Arial Black;
  dominant-baseline: central;
  text-anchor: middle;
}</style></svg>